<svg preserveAspectRatio="none" width="100%" height="100%" overflow="visible" style="display: block;" viewBox="0 0 31.0623 31.7733" fill="none" xmlns="http://www.w3.org/2000/svg">
<g id="Group 56">
<path id="Vector" d="M17.0349 13.7925C17.0349 12.9948 16.9855 12.475 17.0462 11.9685C17.1441 11.1498 16.8153 10.9143 16.0246 10.9464C14.6512 11.0022 13.2735 10.9827 11.8987 10.9514C11.3366 10.9386 11.115 11.0998 11.1165 11.6958C11.1326 18.1287 11.1325 24.5616 11.117 30.9944C11.1156 31.5768 11.3088 31.7671 11.8861 31.7537C13.3014 31.7208 14.7202 31.6942 16.1331 31.7601C16.9835 31.7998 17.2253 31.5306 17.2146 30.68C17.1691 27.0798 17.1828 23.4786 17.2008 19.8779C17.2123 17.5916 18.5264 16.1116 20.6131 15.9683C23.1637 15.7932 24.482 16.8392 24.8438 19.3588C24.9181 19.8762 24.9192 20.4069 24.9199 20.9315C24.9241 24.1682 24.9401 27.4051 24.9003 30.6413C24.8907 31.4243 25.0055 31.8218 25.928 31.7685C27.3395 31.687 28.76 31.7021 30.1742 31.7496C30.8951 31.7739 31.0502 31.4924 31.0457 30.8342C31.0199 27.0313 31.1272 23.2248 30.994 19.4263C30.9108 17.0531 30.5177 14.7066 28.7727 12.8129C26.2667 10.0932 20.1763 9.36017 17.0349 13.7925Z" fill="var(--fill-0, white)"/>
<path id="Vector_2" d="M0.941561 21.3667C0.941561 24.5182 0.953674 27.6697 0.931324 30.821C0.926892 31.4473 1.01832 31.7881 1.77416 31.7609C3.26709 31.7071 4.76391 31.7257 6.2581 31.7594C6.8494 31.7727 7.01234 31.554 7.01089 30.9852C6.99477 24.5611 6.99412 18.1369 7.00879 11.7128C7.01012 11.1306 6.81058 10.9416 6.23808 10.9533C4.7842 10.9833 3.32772 11.0029 1.87536 10.9469C1.11574 10.9176 0.915585 11.1776 0.923913 11.9125C0.959635 15.0636 0.939116 18.2153 0.941561 21.3667Z" fill="var(--fill-0, white)"/>
<path id="Vector_3" d="M8.24326 4.11531C8.2444 1.75139 6.56962 0.00932061 4.28704 3.68395e-05C1.91123 -0.00962897 -0.0486346 1.88407 0.000993377 4.14136C0.0502776 6.38353 1.98986 8.2582 4.24845 8.24666C6.51331 8.23504 8.24215 6.44717 8.24326 4.11531Z" fill="var(--fill-0, white)"/>
</g>
</svg>
