<svg preserveAspectRatio="none" width="100%" height="100%" overflow="visible" style="display: block;" viewBox="0 0 43.345 43.3449" fill="none" xmlns="http://www.w3.org/2000/svg">
<g id="Group 57">
<path id="Vector" d="M21.6725 3.61053e-05C9.70317 3.61053e-05 8.94036e-05 9.70312 8.94036e-05 21.6725C8.94036e-05 33.6418 9.70317 43.3449 21.6725 43.3449C33.6419 43.3449 43.345 33.6418 43.345 21.6725C43.345 9.70312 33.6419 3.61053e-05 21.6725 3.61053e-05ZM35.4291 35.4291C33.6417 37.2165 31.5609 38.6195 29.2445 39.5993C26.8475 40.6132 24.2999 41.1272 21.6725 41.1272C19.0451 41.1272 16.4975 40.6132 14.1005 39.5993C11.7841 38.6195 9.70326 37.2165 7.91584 35.4291C6.12843 33.6417 4.72537 31.5609 3.74561 29.2445C2.73174 26.8474 2.21766 24.2998 2.21766 21.6725C2.21766 19.0451 2.73174 16.4975 3.74561 14.1005C4.72537 11.7841 6.12843 9.70325 7.91584 7.91583C9.70326 6.12842 11.7841 4.72536 14.1005 3.7456C16.4975 2.73173 19.0451 2.21766 21.6725 2.21766C24.2998 2.21766 26.8474 2.73173 29.2445 3.7456C31.5609 4.72536 33.6417 6.12842 35.4291 7.91583C37.2165 9.70325 38.6196 11.784 39.5994 14.1005C40.6132 16.4975 41.1273 19.0451 41.1273 21.6725C41.1273 24.2998 40.6132 26.8474 39.5994 29.2445C38.6196 31.5609 37.2165 33.6417 35.4291 35.4291Z" fill="var(--fill-0, white)"/>
<path id="Vector_2" d="M30.2463 19.0295L19.7561 11.6469C19.1742 11.2373 18.5329 11.0522 17.9069 11.0522C16.229 11.0524 14.6635 12.3832 14.6635 14.2909V29.054C14.6635 30.9618 16.2289 32.2927 17.9069 32.2927C18.5327 32.2927 19.1743 32.1075 19.7561 31.698L30.2463 24.3155C32.0758 23.0283 32.0758 20.3167 30.2463 19.0295Z" fill="var(--fill-0, white)"/>
</g>
</svg>
