<svg preserveAspectRatio="none" width="100%" height="100%" overflow="visible" style="display: block;" viewBox="0 0 58.8551 59.1511" fill="none" xmlns="http://www.w3.org/2000/svg">
<path id="ZAP" d="M50.2783 8.60661C47.5664 5.86824 44.3366 3.69699 40.7772 2.21939C37.2177 0.741789 33.3998 -0.0126085 29.5459 0.000159397C13.3977 0.000159397 0.236604 13.1612 0.236604 29.3094C0.236604 34.4851 1.59707 39.513 4.14056 43.9493L0 59.1511L15.5271 55.0696C19.8156 57.4061 24.6363 58.6483 29.5459 58.6483C45.6941 58.6483 58.8551 45.4872 58.8551 29.339C58.8551 21.5015 55.8089 14.1372 50.2783 8.60661ZM29.5459 53.6796C25.1687 53.6796 20.8803 52.4966 17.1242 50.2784L16.2369 49.7461L7.00938 52.1712L9.46414 43.1803L8.87263 42.2635C6.44019 38.3804 5.14886 33.8915 5.14613 29.3094C5.14613 15.8822 16.089 4.93926 29.5163 4.93926C36.0229 4.93926 42.145 7.48275 46.7292 12.0965C48.9995 14.3557 50.7986 17.0431 52.0221 20.003C53.2457 22.9629 53.8693 26.1362 53.8569 29.339C53.916 42.7663 42.9731 53.6796 29.5459 53.6796ZM42.914 35.4611C42.1746 35.1062 38.5664 33.3317 37.9157 33.0655C37.2355 32.8289 36.7623 32.7106 36.2595 33.4204C35.7567 34.1598 34.3667 35.816 33.9526 36.2892C33.5386 36.792 33.0949 36.8512 32.3555 36.4667C31.6162 36.1118 29.2501 35.3132 26.47 32.8289C24.2814 30.8769 22.8322 28.4813 22.3886 27.7419C21.9746 27.0025 22.3295 26.6181 22.7139 26.2336C23.0393 25.9083 23.4533 25.3759 23.8082 24.9618C24.1631 24.5478 24.311 24.2225 24.5476 23.7492C24.7842 23.2465 24.6659 22.8324 24.4885 22.4775C24.311 22.1226 22.8322 18.5144 22.2407 17.0356C21.6492 15.616 21.0281 15.7934 20.5845 15.7639H19.1649C18.6621 15.7639 17.8931 15.9413 17.2129 16.6807C16.5622 17.4201 14.6694 19.1946 14.6694 22.8028C14.6694 26.411 17.3016 29.9009 17.6565 30.3741C18.0114 30.8769 22.8322 38.2708 30.167 41.4354C31.9119 42.2043 33.2724 42.648 34.3371 42.9733C36.082 43.5352 37.6791 43.4465 38.9509 43.269C40.3705 43.062 43.2985 41.4945 43.89 39.7791C44.511 38.0638 44.5111 36.6146 44.304 36.2892C44.097 35.9639 43.6534 35.816 42.914 35.4611Z" fill="url(#paint0_linear_0_25)"/>
<defs>
<linearGradient id="paint0_linear_0_25" x1="56.0623" y1="55.2781" x2="1.67567" y2="52.8157" gradientUnits="userSpaceOnUse">
<stop stop-color="#6789D9"/>
<stop offset="0.149038" stop-color="#253EAD"/>
<stop offset="0.307692" stop-color="#216EF2"/>
<stop offset="0.538462" stop-color="#62E5FF"/>
<stop offset="0.754808" stop-color="#A343CB"/>
<stop offset="1" stop-color="#EA0E81"/>
</linearGradient>
</defs>
</svg>
