<svg preserveAspectRatio="none" width="100%" height="100%" overflow="visible" style="display: block;" viewBox="0 0 23.2634 29.503" fill="none" xmlns="http://www.w3.org/2000/svg">
<path id="Vector" d="M13.355 0.712855C12.898 0.256391 12.2785 0 11.6325 0C10.9866 0 10.3671 0.256391 9.91003 0.712855L0.714156 9.90386C0.25689 10.3611 -6.8138e-09 10.9813 0 11.628C6.8138e-09 12.2747 0.25689 12.8948 0.714156 13.3521C1.17142 13.8094 1.79161 14.0663 2.43828 14.0663C3.08495 14.0663 3.70514 13.8094 4.16241 13.3521L9.19503 8.32111V27.0655C9.19503 27.7119 9.45184 28.3319 9.90896 28.7891C10.3661 29.2462 10.9861 29.503 11.6325 29.503C12.279 29.503 12.899 29.2462 13.3561 28.7891C13.8132 28.3319 14.07 27.7119 14.07 27.0655V8.32111L19.101 13.3521C19.3274 13.5785 19.5962 13.7581 19.8921 13.8807C20.1879 14.0032 20.505 14.0663 20.8252 14.0663C21.1454 14.0663 21.4624 14.0032 21.7582 13.8807C22.0541 13.7581 22.3229 13.5785 22.5493 13.3521C22.7757 13.1257 22.9553 12.8569 23.0778 12.5611C23.2004 12.2652 23.2634 11.9482 23.2634 11.628C23.2634 11.3078 23.2004 10.9907 23.0778 10.6949C22.9553 10.3991 22.7757 10.1303 22.5493 9.90386L13.355 0.712855Z" fill="var(--fill-0, white)"/>
</svg>
