<svg width="34" height="34" viewBox="0 0 34 34" fill="none" xmlns="http://www.w3.org/2000/svg">
<path d="M16.9801 0C7.60211 0 0 7.60211 0 16.9801C0 26.358 7.60211 33.9601 16.9801 33.9601C26.358 33.9601 33.9601 26.358 33.9601 16.9801C33.9601 7.60211 26.358 0 16.9801 0ZM12.8235 24.0179H9.38502V12.9526H12.8235V24.0179ZM11.083 11.5942C9.99701 11.5942 9.29481 10.8248 9.29481 9.8732C9.29481 8.90215 10.0182 8.15574 11.1272 8.15574C12.2363 8.15574 12.9155 8.90215 12.9367 9.8732C12.9367 10.8248 12.2363 11.5942 11.083 11.5942ZM25.3817 24.0179H21.9432V17.8857C21.9432 16.4583 21.4444 15.489 20.201 15.489C19.2511 15.489 18.6869 16.1452 18.4375 16.7767C18.3455 17.0013 18.3225 17.3197 18.3225 17.6363V24.0162H14.8823V16.4813C14.8823 15.0999 14.8381 13.9449 14.7921 12.9508H17.7795L17.937 14.4879H18.0059C18.4587 13.7662 19.5678 12.7014 21.4232 12.7014C23.6854 12.7014 25.3817 14.2173 25.3817 17.4753V24.0179Z" fill="url(#paint0_linear_75_2075)"/>
<defs>
<linearGradient id="paint0_linear_75_2075" x1="32.3486" y1="31.7365" x2="0.96753" y2="30.3086" gradientUnits="userSpaceOnUse">
<stop stop-color="#EA0E81"/>
<stop offset="0.245192" stop-color="#A343CB"/>
<stop offset="0.461538" stop-color="#62E5FF"/>
<stop offset="0.692308" stop-color="#216EF2"/>
<stop offset="0.850962" stop-color="#253EAD"/>
<stop offset="1" stop-color="#6789D9"/>
</linearGradient>
</defs>
</svg>
