<svg preserveAspectRatio="none" width="100%" height="100%" overflow="visible" style="display: block;" viewBox="0 0 76.4899 34" fill="none" xmlns="http://www.w3.org/2000/svg">
<g id="Group 34">
<path id="Insta" d="M16.9801 0C7.60211 0 0 7.60211 0 16.9801C0 26.358 7.60211 33.9601 16.9801 33.9601C26.358 33.9601 33.9601 26.358 33.9601 16.9801C33.9601 7.60211 26.358 0 16.9801 0ZM12.8235 24.0179H9.38502V12.9526H12.8235V24.0179ZM11.083 11.5942C9.99701 11.5942 9.29481 10.8248 9.29481 9.8732C9.29481 8.90215 10.0182 8.15574 11.1272 8.15574C12.2363 8.15574 12.9155 8.90215 12.9367 9.8732C12.9367 10.8248 12.2363 11.5942 11.083 11.5942ZM25.3817 24.0179H21.9432V17.8857C21.9432 16.4583 21.4444 15.489 20.201 15.489C19.2511 15.489 18.6869 16.1452 18.4375 16.7767C18.3455 17.0013 18.3225 17.3197 18.3225 17.6363V24.0162H14.8823V16.4813C14.8823 15.0999 14.8381 13.9449 14.7921 12.9508H17.7795L17.937 14.4879H18.0059C18.4587 13.7662 19.5678 12.7014 21.4232 12.7014C23.6854 12.7014 25.3817 14.2173 25.3817 17.4753V24.0179Z" fill="url(#paint0_linear_0_4)"/>
<g id="Youtube">
<path id="Vector" fill-rule="evenodd" clip-rule="evenodd" d="M53.2033 11.0795C54.9739 9.33592 57.0842 8.47255 59.5949 8.47255C62.1056 8.47255 64.2158 9.33423 65.9865 11.0795C67.7571 12.8249 68.6256 14.8946 68.6256 17.3546C68.6256 19.8146 67.7571 21.8826 65.9865 23.6279C64.2158 25.3732 62.1056 26.2349 59.5949 26.2349C57.0842 26.2349 54.9739 25.3732 53.2033 23.6279C51.4326 21.8826 50.5642 19.8129 50.5642 17.3546C50.5642 14.8963 51.4326 12.8232 53.2033 11.0795ZM64.9913 17.3562L56.2158 22.2712V12.4346L64.9913 17.3562Z" fill="url(#paint1_linear_0_4)"/>
<path id="Vector_2" fill-rule="evenodd" clip-rule="evenodd" d="M71.5411 29.1239C74.8414 25.8732 76.491 21.95 76.4898 17.3544C76.4898 12.7577 74.8403 8.83401 71.5411 5.5833C68.2408 2.33259 64.2586 0.70723 59.5943 0.70723C54.9299 0.70723 50.9477 2.33259 47.6474 5.5833C44.3471 8.83401 42.6975 12.7577 42.6987 17.3544C42.6987 21.95 44.3482 25.8732 47.6474 29.1239C50.9477 32.3746 54.9299 34 59.5943 34C64.2597 34 68.242 32.3746 71.5411 29.1239ZM59.5943 6.25912C56.5074 6.25912 53.8379 7.3472 51.65 9.50307C49.4603 11.6606 48.3502 14.2963 48.3502 17.3544C48.3502 20.4109 49.4603 23.0483 51.65 25.2041C53.8379 27.36 56.5057 28.4481 59.5943 28.4481C62.6828 28.4481 65.3506 27.36 67.5386 25.2041C69.7282 23.0483 70.8383 20.4109 70.8383 17.3544C70.8383 14.2963 69.7282 11.6606 67.5386 9.50307C65.3506 7.3472 62.6811 6.25912 59.5943 6.25912Z" fill="url(#paint2_linear_0_4)"/>
</g>
</g>
<defs>
<linearGradient id="paint0_linear_0_4" x1="32.3486" y1="31.7365" x2="0.96753" y2="30.3086" gradientUnits="userSpaceOnUse">
<stop stop-color="#EA0E81"/>
<stop offset="0.245192" stop-color="#A343CB"/>
<stop offset="0.461538" stop-color="#62E5FF"/>
<stop offset="0.692308" stop-color="#216EF2"/>
<stop offset="0.850962" stop-color="#253EAD"/>
<stop offset="1" stop-color="#6789D9"/>
</linearGradient>
<linearGradient id="paint1_linear_0_4" x1="67.7685" y1="25.0719" x2="51.0799" y2="24.2997" gradientUnits="userSpaceOnUse">
<stop stop-color="#EA0E81"/>
<stop offset="0.245192" stop-color="#A343CB"/>
<stop offset="0.461538" stop-color="#62E5FF"/>
<stop offset="0.692308" stop-color="#216EF2"/>
<stop offset="0.850962" stop-color="#253EAD"/>
<stop offset="1" stop-color="#6789D9"/>
</linearGradient>
<linearGradient id="paint2_linear_0_4" x1="74.8863" y1="31.8201" x2="43.6633" y2="30.3781" gradientUnits="userSpaceOnUse">
<stop stop-color="#EA0E81"/>
<stop offset="0.245192" stop-color="#A343CB"/>
<stop offset="0.461538" stop-color="#62E5FF"/>
<stop offset="0.692308" stop-color="#216EF2"/>
<stop offset="0.850962" stop-color="#253EAD"/>
<stop offset="1" stop-color="#6789D9"/>
</linearGradient>
</defs>
</svg>
