<svg width="34" height="34" viewBox="0 0 34 34" fill="none" xmlns="http://www.w3.org/2000/svg">
<path fill-rule="evenodd" clip-rule="evenodd" d="M10.5048 10.3723C12.2755 8.62868 14.3857 7.76532 16.8964 7.76532C19.4071 7.76532 21.5174 8.62699 23.288 10.3723C25.0587 12.1176 25.9271 14.1873 25.9271 16.6473C25.9271 19.1073 25.0587 21.1753 23.288 22.9207C21.5174 24.666 19.4071 25.5276 16.8964 25.5276C14.3857 25.5276 12.2755 24.666 10.5048 22.9207C8.73416 21.1753 7.86572 19.1056 7.86572 16.6473C7.86572 14.189 8.73416 12.1159 10.5048 10.3723ZM22.2929 16.649L13.5173 21.5639V11.7273L22.2929 16.649Z" fill="url(#paint0_linear_75_2076)"/>
<path fill-rule="evenodd" clip-rule="evenodd" d="M28.8424 28.4167C32.1427 25.166 33.7923 21.2428 33.7912 16.6472C33.7912 12.0505 32.1416 8.12678 28.8424 4.87607C25.5422 1.62536 21.5599 0 16.8956 0C12.2313 0 8.24899 1.62536 4.94872 4.87607C1.64845 8.12678 -0.0011258 12.0505 5.76444e-07 16.6472C5.76444e-07 21.2428 1.64957 25.166 4.94872 28.4167C8.24899 31.6674 12.2313 33.2927 16.8956 33.2927C21.561 33.2927 25.5433 31.6674 28.8424 28.4167ZM16.8956 5.55189C13.8088 5.55189 11.1393 6.63997 8.95128 8.79584C6.76161 10.9534 5.65157 13.5891 5.65157 16.6472C5.65157 19.7036 6.76161 22.341 8.95128 24.4969C11.1393 26.6528 13.8071 27.7409 16.8956 27.7409C19.9841 27.7409 22.6519 26.6528 24.8399 24.4969C27.0296 22.341 28.1396 19.7036 28.1396 16.6472C28.1396 13.5891 27.0296 10.9534 24.8399 8.79584C22.6519 6.63997 19.9824 5.55189 16.8956 5.55189Z" fill="url(#paint1_linear_75_2076)"/>
<defs>
<linearGradient id="paint0_linear_75_2076" x1="25.07" y1="24.3646" x2="8.38147" y2="23.5925" gradientUnits="userSpaceOnUse">
<stop stop-color="#EA0E81"/>
<stop offset="0.245192" stop-color="#A343CB"/>
<stop offset="0.461538" stop-color="#62E5FF"/>
<stop offset="0.692308" stop-color="#216EF2"/>
<stop offset="0.850962" stop-color="#253EAD"/>
<stop offset="1" stop-color="#6789D9"/>
</linearGradient>
<linearGradient id="paint1_linear_75_2076" x1="32.1877" y1="31.1129" x2="0.964662" y2="29.6709" gradientUnits="userSpaceOnUse">
<stop stop-color="#EA0E81"/>
<stop offset="0.245192" stop-color="#A343CB"/>
<stop offset="0.461538" stop-color="#62E5FF"/>
<stop offset="0.692308" stop-color="#216EF2"/>
<stop offset="0.850962" stop-color="#253EAD"/>
<stop offset="1" stop-color="#6789D9"/>
</linearGradient>
</defs>
</svg>
