<svg viewBox="0 0 55.7 55.7" fill="none" xmlns="http://www.w3.org/2000/svg" overflow="visible">
  <svg x="0" y="0" width="42.4" height="43.0" viewBox="0 0 57.5667 57.8742" overflow="visible">
    <path d="M37.609 0.199805C44.4191 0.199805 51.0862 2.04796 56.8893 5.54453C57.3559 5.82575 57.5063 6.43241 57.2252 6.89902C56.944 7.36556 56.3375 7.51622 55.8707 7.23496C50.3753 3.9238 44.0606 2.17344 37.609 2.17344C28.1433 2.17344 19.2455 5.85914 12.5523 12.5523C5.85924 19.2456 2.17347 28.1433 2.17344 37.609C2.17344 44.3852 3.92338 50.8036 7.23008 56.1705C7.51535 56.6344 7.37053 57.2422 6.90684 57.5279C6.74598 57.6268 6.56676 57.6744 6.39023 57.6744C6.05979 57.6743 5.73593 57.5074 5.54941 57.2047C2.04838 51.5219 0.199805 44.7453 0.199805 37.609C0.199809 27.6171 4.09148 18.2222 11.1568 11.1568C18.2222 4.09148 27.6171 0.199809 37.609 0.199805Z" fill="white" stroke="white" stroke-width="0.5"/>
  </svg>
  <svg x="11.2" y="11.2" width="44.5" height="44.6" viewBox="0 0 60.1832 60.1832" overflow="visible">
    <path d="M51.4791 0.388308C51.9201 0.0681488 52.5367 0.166343 52.8571 0.607058C57.5186 7.02267 59.983 14.619 59.983 22.5739C59.983 32.5658 56.0914 41.9606 49.026 49.026C41.9606 56.0914 32.5657 59.983 22.5739 59.983C14.619 59.983 7.02265 57.5186 0.607057 52.8571C0.166314 52.5368 0.0681903 51.9199 0.388307 51.4791L0.451784 51.4C0.785108 51.0274 1.35288 50.961 1.76624 51.2614C7.84271 55.6766 15.0374 58.0103 22.5739 58.0104C32.0395 58.0104 40.9383 54.3247 47.6315 47.6315C54.3247 40.9382 58.0104 32.0394 58.0104 22.5739C58.0103 15.0376 55.6765 7.84271 51.2614 1.76624C50.9412 1.32551 51.0385 0.708628 51.4791 0.388308Z" fill="white" stroke="white" stroke-width="0.5"/>
  </svg>
  <svg x="44.2" y="5.8" width="9.3" height="9.5" viewBox="0 0 13.3577 13.3579" overflow="visible">
    <path d="M0.586534 0.402942C0.826562 0.219101 1.14102 0.154648 1.4381 0.23302L1.43712 0.233996L12.4225 3.12364C12.7639 3.21366 13.0314 3.47904 13.1236 3.81993L13.149 3.94884C13.1886 4.2503 13.0873 4.5565 12.8688 4.77501L4.77501 12.8688C4.5875 13.0561 4.33502 13.1578 4.07677 13.1578C3.99105 13.1578 3.90462 13.1465 3.81993 13.1236C3.47911 13.0315 3.21352 12.764 3.12364 12.4225L0.232042 1.4381C0.142673 1.09867 0.240996 0.736902 0.488878 0.488879L0.586534 0.402942ZM4.59435 10.2584L10.2584 4.59435L2.57091 2.57091L4.59435 10.2584Z" fill="white" stroke="white" stroke-width="0.5"/>
  </svg>
  <svg x="0.4" y="38.7" width="9.3" height="10.2" viewBox="0 0 13.3577 13.3577" overflow="visible">
    <path d="M8.58263 0.488877C8.83229 0.23921 9.19683 0.14196 9.5377 0.233994C9.87853 0.326139 10.1451 0.59358 10.235 0.935166L13.1256 11.9205C13.2036 12.2175 13.1383 12.5313 12.9547 12.7711L12.8688 12.8688C12.6814 13.056 12.4296 13.1577 12.1715 13.1578C12.088 13.1578 12.0035 13.1474 11.9205 13.1256L0.935164 10.235C0.593672 10.145 0.326267 9.87863 0.233992 9.5377C0.142056 9.19688 0.239139 8.83236 0.488875 8.58263L8.58263 0.488877ZM3.09825 8.76231L10.7858 10.7858L8.76329 3.09728L3.09825 8.76231Z" fill="white" stroke="white" stroke-width="0.5"/>
  </svg>
  <svg x="8.2" y="8.0" width="39.3" height="39.9" viewBox="0 0 53.2489 53.2489" overflow="visible">
    <path d="M26.6246 0.199805C33.6822 0.199851 40.3187 2.94871 45.3092 7.93906C50.2999 12.9298 53.0484 19.5667 53.0484 26.6246C53.0484 33.6824 50.2998 40.3186 45.3092 45.3092C40.3186 50.2997 33.6824 53.0484 26.6246 53.0484C19.5667 53.0484 12.9297 50.2998 7.93906 45.3092C2.94859 40.3186 0.199852 33.6823 0.199805 26.6246C0.199805 19.5667 2.94835 12.9297 7.93906 7.93906C12.9297 2.94835 19.5669 0.199805 26.6246 0.199805ZM26.6246 2.17246C20.093 2.17246 13.9532 4.71598 9.33457 9.33457C4.71602 13.953 2.17344 20.093 2.17344 26.6246C2.17351 33.156 4.71621 39.2953 9.33457 43.9137C13.9532 48.5323 20.093 51.0758 26.6246 51.0758C33.1561 51.0757 39.2951 48.5322 43.9137 43.9137H43.9146C48.5329 39.2953 51.0757 33.1559 51.0758 26.6246C51.0758 20.0931 48.5331 13.953 43.9146 9.33457H43.9137C39.2953 4.71618 33.1561 2.17251 26.6246 2.17246Z" fill="white" stroke="white" stroke-width="0.5"/>
  </svg>
  <svg x="9.5" y="10.9" width="17.1" height="33.7" viewBox="0 0 23.7642 45.1553" overflow="visible">
    <path d="M12.3082 0.30439C12.7955 0.0607542 13.3877 0.258569 13.6315 0.745797L14.6705 2.82392L16.1871 3.83466C16.4261 3.99399 16.5836 4.24973 16.6188 4.53486C16.6539 4.81994 16.5632 5.10643 16.3698 5.31904L10.5885 11.6784C10.4016 11.8839 10.137 12.0015 9.85901 12.0017H7.95471L6.62854 13.3269L7.08752 13.7858C7.30272 14.001 7.4065 14.304 7.36877 14.6061L6.95081 17.9499L9.71936 17.5544C9.76554 17.5478 9.81188 17.5446 9.85803 17.5446H12.7496C12.985 17.5447 13.2125 17.6288 13.3912 17.7819L17.4381 21.2507C17.6569 21.4382 17.7828 21.7117 17.7828 21.9997V22.9245L22.7711 23.9226L22.8561 23.944C23.2723 24.0663 23.5641 24.4494 23.5641 24.8903V27.781C23.5641 27.8614 23.5544 27.9419 23.5348 28.0202L22.3785 32.6452C22.2833 33.0263 21.971 33.315 21.5836 33.3796L18.9391 33.82V35.8747C18.9391 36.1363 18.8351 36.3879 18.65 36.5729L17.0797 38.1413L16.6266 39.5026V41.5339L17.1754 43.7292V43.7302C17.2616 44.076 17.1542 44.4373 16.903 44.6794L16.7867 44.7751C16.617 44.8952 16.4173 44.9558 16.2184 44.9558C16.0279 44.9557 15.8373 44.9002 15.6715 44.7897L13.9371 43.6335C13.8442 43.5715 13.7621 43.4938 13.6949 43.404L11.9606 41.0915C11.95 41.0774 11.9387 41.0631 11.9283 41.0476L10.7721 39.3122V39.3132C10.664 39.1511 10.6071 38.9601 10.6071 38.7653V35.9958L9.58948 31.9294L7.68323 30.9763C7.47474 30.8719 7.30933 30.6967 7.21741 30.4821L5.48303 26.4352C5.43029 26.3124 5.40393 26.1799 5.40393 26.0466V21.9997C5.40393 21.8466 5.43895 21.6953 5.50745 21.5583L5.82874 20.9138L5.07581 19.7839L2.3053 17.5671C2.24038 17.5151 2.18138 17.4549 2.13147 17.3884L0.397095 15.0759C0.0703468 14.64 0.158911 14.022 0.594361 13.695C1.00305 13.3886 1.57192 13.447 1.91077 13.8142L1.9762 13.8923L3.6344 16.1042L5.05139 17.237L5.35022 14.8395L4.53577 14.0251C4.15089 13.64 4.15095 13.0157 4.53577 12.6306L6.84827 10.3181C7.03334 10.133 7.28495 10.029 7.54651 10.029H9.42249L14.1383 4.83955L13.358 4.32002C13.2154 4.22482 13.0998 4.09443 13.0231 3.94111L11.8668 1.62763C11.6235 1.14035 11.8211 0.548001 12.3082 0.30439ZM7.50159 19.863L7.78967 20.2956C7.98605 20.5901 8.00944 20.9672 7.8512 21.2839L7.37756 22.2311V25.8444L8.88928 29.3718L10.8785 30.3669C11.136 30.4957 11.3243 30.7311 11.3942 31.0104L12.5504 35.6354C12.57 35.7137 12.5807 35.7941 12.5807 35.8747V38.4665L13.5524 39.9255L14.6539 41.3942V39.3435C14.6539 39.2376 14.6712 39.1325 14.7047 39.0319L15.2828 37.2976V37.2966C15.3313 37.1515 15.4133 37.0199 15.5211 36.9118L16.9664 35.4665V32.9841C16.9664 32.5018 17.315 32.0898 17.7906 32.0104L20.6207 31.5388L21.5914 27.6579V25.6979L16.6031 24.7009C16.1424 24.6085 15.8104 24.2042 15.8102 23.7341V22.4519L12.3854 19.5173H9.92932L7.50159 19.863Z" fill="white" stroke="white" stroke-width="0.5"/>
  </svg>
  <svg x="31.5" y="10.9" width="13.0" height="28.1" viewBox="0 0 17.9827 38.796" overflow="visible">
    <path d="M7.10508 0.304391C7.59246 0.0607557 8.18459 0.258616 8.42832 0.745797C8.67196 1.23314 8.47419 1.82547 7.98692 2.06904L4.73692 3.69404L2.65977 6.60224L5.09629 7.82002C5.38006 7.96183 5.57876 8.23152 5.62949 8.54462L5.64121 8.66181C5.65264 8.93553 5.54927 9.20383 5.35313 9.40009L2.17344 12.5798V15.9372L4.62364 19.8571H9.27989C9.59853 19.8571 9.89744 20.0111 10.0826 20.2702L12.9742 24.3171C13.0936 24.4844 13.1578 24.6848 13.1578 24.8903V30.6716C13.1578 30.752 13.1481 30.8326 13.1285 30.9108L11.7584 36.3884L13.7428 36.0583H13.7438C13.7969 36.0495 13.8508 36.0447 13.9049 36.0446H16.7965C17.3411 36.0448 17.7826 36.4864 17.7828 37.031C17.7828 37.5757 17.3412 38.0181 16.7965 38.0183H13.9859L10.5992 38.5827C10.545 38.5917 10.4899 38.5964 10.4361 38.5964C10.1635 38.5963 9.89985 38.4829 9.71153 38.279C9.48582 38.0347 9.39835 37.6924 9.4791 37.3698L11.1842 30.5524V25.2048L8.77207 21.8298H4.07774C3.73784 21.8298 3.42116 21.6552 3.24082 21.3669L0.350198 16.7409C0.252319 16.5842 0.19981 16.4033 0.199807 16.2185V12.1716C0.199807 11.9102 0.303968 11.6594 0.48887 11.4743L2.98985 8.97236L0.745705 7.85029C0.487696 7.72121 0.298724 7.48579 0.229104 7.20576C0.159756 6.92599 0.215984 6.62988 0.383401 6.39521L3.27403 2.34736H3.275C3.36849 2.21673 3.49269 2.11058 3.63633 2.03877L7.10508 0.304391Z" fill="white" stroke="white" stroke-width="0.5"/>
  </svg>
</svg>
