<svg viewBox="0 0 84.5512 84.5512" fill="none" xmlns="http://www.w3.org/2000/svg" overflow="visible">
  <path d="M42.2754 0.25C53.5001 0.25 64.055 4.62155 71.9922 12.5586C79.9295 20.4959 84.3007 31.0505 84.3008 42.2754C84.3008 53.5004 79.9295 64.055 71.9922 71.9922C64.055 79.9294 53.5004 84.3008 42.2754 84.3008C31.0505 84.3007 20.4959 79.9293 12.5586 71.9922C4.62155 64.0549 0.25 53.5001 0.25 42.2754C0.250051 31.0506 4.62147 20.4957 12.5586 12.5586C20.4959 4.6213 31.0506 0.250052 42.2754 0.25ZM42.2754 3.25586C31.8524 3.25591 22.0548 7.31433 14.6846 14.6846C7.31434 22.0548 3.25586 31.8523 3.25586 42.2754C3.25586 52.6984 7.31435 62.4959 14.6846 69.8662C22.0548 77.2365 31.8524 81.2949 42.2754 81.2949C52.6985 81.2949 62.4959 77.2364 69.8662 69.8662C77.2365 62.4961 81.2949 52.6985 81.2949 42.2754C81.2949 31.8523 77.2365 22.0547 69.8662 14.6846C62.4959 7.31435 52.6983 3.25586 42.2754 3.25586Z" fill="white" stroke="white" stroke-width="0.5"/>
  <svg x="2.70" y="5.48" width="37.5818" height="71.6583" viewBox="0 0 37.5818 71.6583" overflow="visible">
    <path d="M19.5 0.409298C20.2424 0.0377835 21.1452 0.33886 21.5166 1.08117L23.1797 4.40734L25.6114 6.02844C25.9755 6.27127 26.2161 6.66122 26.2696 7.09582C26.3229 7.53013 26.1842 7.96635 25.8897 8.29016L16.6797 18.421C16.3949 18.7342 15.9911 18.9132 15.5674 18.9132H12.5059L10.3252 21.0939L11.1045 21.8732C11.4324 22.201 11.5908 22.6621 11.5332 23.1222L10.8555 28.5372L15.3545 27.8946C15.4253 27.8845 15.4966 27.88 15.5674 27.88H20.1719C20.5307 27.88 20.878 28.008 21.1504 28.2413L27.5977 33.7677C27.9307 34.0533 28.122 34.4697 28.1221 34.9083V36.4386L36.1241 38.0392C36.8261 38.1799 37.3321 38.7973 37.3321 39.5138V44.1183C37.3321 44.2409 37.317 44.3634 37.2871 44.4825L35.4453 51.8507C35.3002 52.4312 34.8243 52.8704 34.2344 52.9689L29.9639 53.6798V57.0118C29.9639 57.4103 29.8056 57.7924 29.5235 58.0743L27.0117 60.5851L26.2803 62.7814V66.0372L27.1563 69.5411C27.3068 70.1435 27.071 70.7762 26.5635 71.1339C26.3052 71.3162 26.0023 71.4083 25.6992 71.4083C25.4088 71.4083 25.118 71.3239 24.8653 71.1554L22.1026 69.3136C21.9609 69.2192 21.8357 69.1014 21.7334 68.965L18.9707 65.2814C18.9545 65.2598 18.9378 65.2369 18.9219 65.213L17.0801 62.4503C16.9154 62.2034 16.8282 61.913 16.8282 61.6163V57.1984L15.1983 50.6788L12.1328 49.1466C11.8151 48.9877 11.5639 48.7205 11.4239 48.3937L8.66019 41.9474V41.9464C8.58013 41.7596 8.53913 41.5584 8.53909 41.3556V34.9083C8.53912 34.6752 8.59304 34.445 8.6973 34.2364L9.22757 33.1739L8.00003 31.3312L3.57718 27.7931C3.47806 27.7139 3.38933 27.6227 3.31351 27.5216L0.550812 23.838C0.0526611 23.1739 0.187721 22.2316 0.851594 21.7335C1.51621 21.2356 2.45738 21.3706 2.95511 22.0343L5.60257 25.5636L7.96195 27.4523L8.45902 23.4786L7.13675 22.1564C6.55024 21.5694 6.5502 20.6182 7.13675 20.0314L10.8213 16.3468C11.1032 16.0651 11.4855 15.9073 11.8838 15.9073H14.9014L22.4893 7.56067L21.1807 6.68762C20.9629 6.54256 20.7869 6.34331 20.67 6.10949L18.8282 2.4259C18.457 1.68354 18.7576 0.780449 19.5 0.409298ZM11.6944 31.4532L12.2139 32.2325C12.5132 32.6813 12.549 33.2559 12.3076 33.7384L11.5459 35.2618V41.047L13.9688 46.7032L17.1621 48.2999C17.5542 48.4962 17.8408 48.8541 17.9473 49.2794L19.7891 56.6466C19.819 56.7659 19.834 56.8889 19.834 57.0118V61.1613L21.3965 63.505L23.2754 66.0109V62.5372C23.2754 62.3761 23.3006 62.2156 23.3516 62.0626L24.2735 59.2989C24.3473 59.0779 24.4711 58.8768 24.6358 58.712L26.959 56.3888V52.4073C26.959 51.6726 27.4902 51.0448 28.2149 50.9239L32.7676 50.1652L34.3262 43.9337V40.7443L26.3252 39.1446C25.623 39.004 25.1172 38.3875 25.1172 37.671V35.5997L19.6172 30.8859H15.6719L11.6944 31.4532Z" fill="white" stroke="white" stroke-width="0.5"/>
  </svg>
  <svg x="50.36" y="5.48" width="28.3725" height="61.5276" viewBox="0 0 28.3725 61.5276" overflow="visible">
    <path d="M11.2109 0.409297C11.9535 0.0377963 12.8571 0.338797 13.2285 1.08117C13.5997 1.82362 13.2981 2.72654 12.5557 3.09777L7.36426 5.69348L3.99903 10.4054L7.95117 12.382C8.38344 12.598 8.68541 13.0084 8.7627 13.4855C8.84011 13.9623 8.68337 14.4476 8.3418 14.7892L3.25586 19.8741V25.2677L7.19141 31.5636H14.6465C15.1319 31.5636 15.588 31.7975 15.8701 32.1925L20.4746 38.6398L20.5391 38.7374C20.6798 38.971 20.7549 39.2396 20.7549 39.5138V48.7228C20.7549 48.8455 20.7398 48.9687 20.71 49.088L18.502 57.9142L21.7676 57.3712C21.849 57.3577 21.9319 57.3507 22.0147 57.3507H26.6191C27.4492 57.3507 28.122 58.0236 28.1221 58.8536C28.1221 59.6837 27.4492 60.3566 26.6191 60.3566H22.1416L16.7354 61.257L16.7344 61.2579C16.6531 61.271 16.5706 61.2775 16.4883 61.2775C16.0725 61.2774 15.6708 61.1047 15.3838 60.7941C15.0403 60.4218 14.9074 59.9016 15.0303 59.4103L17.748 48.5392V39.9933L13.873 34.5695H6.3584C5.84047 34.5695 5.35868 34.3027 5.08399 33.8634L0.478518 26.4952C0.329318 26.2565 0.250003 25.98 0.250003 25.6984V19.2521C0.250003 18.8536 0.408553 18.4715 0.690432 18.1896L4.74121 14.1378L1.08106 12.3077C0.687973 12.1111 0.400014 11.7519 0.293948 11.3253C0.188185 10.8988 0.274871 10.4476 0.530276 10.09L5.13477 3.6427C5.27724 3.44337 5.46652 3.28154 5.68555 3.17199L11.2109 0.410273V0.409297Z" fill="white" stroke="white" stroke-width="0.5"/>
  </svg>
</svg>
