<svg preserveAspectRatio="none" width="100%" height="100%" overflow="visible" style="display: block;" viewBox="0 0 126.744 48.0481" fill="none" xmlns="http://www.w3.org/2000/svg">
<g id="Group">
<path id="path26" d="M53.2325 0.969872H69.1337V47.0533H53.2325V0.969872Z" fill="var(--fill-0, white)"/>
<path id="path28" d="M103.088 29.6943H113.509C111.626 33.2756 107.834 35.3646 103.382 35.3646C96.7276 35.3646 92.0306 30.8881 92.0306 24.3722V24.2479C92.0306 18.0056 96.5319 13.3799 102.697 13.3799C105.51 13.3799 108.274 14.1508 110.672 15.5933L122.952 7.83393C117.888 2.63618 109.913 3.86936e-06 102.207 3.86936e-06C87.1869 3.86936e-06 75.9583 10.2712 75.9583 24.024V24.1484C75.9583 38.4236 87.8474 48.0481 102.672 48.0481C111.308 48.0481 120.702 45.1384 126.744 35.3895V19.2491H103.064L103.088 29.6943Z" fill="var(--fill-0, white)"/>
<path id="path30" fill-rule="evenodd" clip-rule="evenodd" d="M37.2087 19.249C40.8537 14.0264 39.6305 6.78936 34.4932 3.10866C32.5851 1.71596 30.2855 0.994742 27.9371 0.969872H1.14075e-05V47.0533H32.4383C40.1443 47.0533 46.5047 40.5623 46.5047 32.7284C46.4802 26.7099 42.7863 21.3381 37.2087 19.249Z" fill="var(--fill-0, white)"/>
</g>
</svg>
