<svg preserveAspectRatio="none" width="100%" height="100%" overflow="visible" style="display: block;" viewBox="0 0 149.482 27.5764" fill="none" xmlns="http://www.w3.org/2000/svg">
<g id="GALDERMA_LOGO_BLACK_RGB">
<path id="Path" d="M11.3205 9.26567V13.6044C10.4887 13.825 9.58447 13.9353 8.71644 13.9353C5.02733 13.9353 2.1339 11.913 2.1339 7.57432C2.1339 3.67685 4.48481 1.2869 8.10159 1.2869C10.1993 1.25013 12.1524 2.24288 13.3821 3.971L12.7311 0.588296C11.3205 0.183842 9.87381 0 8.39093 0C2.67642 0 0 3.93423 0 7.942C0 12.391 3.11043 15.2589 7.73991 15.2589C9.11429 15.2957 10.4887 15.0016 11.7184 14.4133L13.2736 15.3325V9.30244L14.0693 7.72139H10.3802L11.3205 9.26567Z" fill="var(--fill-0, white)"/>
<path id="Shape" d="M27.3792 0.29393H25.0283L25.8601 1.80144L20.435 13.5674L19.0968 15.0749H22.8582L21.8817 13.7145L23.8347 9.04484H29.0429L30.996 13.6777L30.1279 15.0381H34.3957L33.0937 13.4938L27.3792 0.29393ZM24.3411 7.94179L26.4388 2.94127L28.5727 7.94179H24.3411Z" fill="var(--fill-0, white)"/>
<path id="Path_00000160166971937358378720000009007458773521470132_" d="M42.9673 11.6554V1.87498L43.9076 0.29393H40.0377L40.9781 1.87498V13.4938L40.0377 15.1117H49.5498L50.3817 12.832C47.9584 13.3835 45.5352 13.7145 43.0758 13.8983C42.9673 13.2365 42.9673 12.5011 42.9673 11.6554Z" fill="var(--fill-0, white)"/>
<path id="Shape_00000106853219096975020060000001197001072876644507_" d="M149.482 15.1116L148.18 13.5673L142.465 0.33067H140.114L140.946 1.83818L135.521 13.6041L134.183 15.1116H137.944L136.968 13.7512L138.921 9.08159H144.129L146.082 13.7144L145.214 15.0749L149.482 15.1116ZM139.391 7.94176L141.489 2.94124L143.622 7.94176H139.391Z" fill="var(--fill-0, white)"/>
<path id="Shape_00000175291956706872519660000001210639877717069192_" d="M103.802 4.52231C103.802 1.80144 101.632 0.29393 97.1469 0.29393H92.5536L93.4939 1.87498V13.4938L92.5536 15.1117H96.4597L95.5193 13.4938V8.49331L103.042 15.0749H106.225L98.0872 8.71393C101.885 8.49332 103.802 6.8755 103.802 4.52231ZM95.5193 7.79471V3.75017C95.5193 3.0148 95.5555 2.2059 95.5916 1.47052H97.2192C100.33 1.47052 101.74 2.42651 101.74 4.63262C101.74 7.83148 98.4851 7.79471 96.315 7.79471H95.5193Z" fill="var(--fill-0, white)"/>
<path id="Path_00000147198668294349715750000011820297409084360605_" d="M127.239 1.87498L128.107 0.29393H125.141L125.213 1.58083L120.186 12.1702L114.544 0.29393H112.193L113.314 2.53681L112.338 13.4203L110.927 15.0749H114.833L113.784 13.5674L114.291 4.52231L119.716 15.5161H120.005L125.358 4.00755L125.973 13.5306L124.924 15.0749H129.192L128.107 13.5306L127.239 1.87498Z" fill="var(--fill-0, white)"/>
<path id="Shape_00000108295485589879446050000017512998412487689118_" d="M55.6986 15.1117H60.6174C66.3681 15.1117 69.2253 11.9128 69.2253 7.53734C69.2253 3.08834 66.1872 0.29393 60.6174 0.29393H55.6986L56.6389 1.87498V13.4938L55.6986 15.1117ZM58.6281 3.75017C58.6281 3.05157 58.6643 2.27943 58.7005 1.58083H60.4365C64.9575 1.58083 67.1276 3.78694 67.1276 7.68441C67.1276 11.398 65.066 13.788 60.4365 13.8248L58.7367 13.8615C58.6643 13.2365 58.6643 12.5011 58.6643 11.6922V3.75017H58.6281Z" fill="var(--fill-0, white)"/>
<path id="Path_00000019645224046321439330000004406231036467952011_" d="M78.4477 11.6554V7.79471C80.5454 7.83148 83.2942 7.97856 85.2111 8.1624L84.8856 6.65489L78.4477 6.76519V3.75017C78.4477 3.0148 78.4839 2.24266 78.52 1.47052C80.9433 1.58083 83.3665 1.94851 85.7174 2.50004L84.8856 0.29393H75.4819L76.4223 1.87498V13.4938L75.4819 15.1117H85.0664L85.8982 12.7952C83.475 13.3835 81.0156 13.7512 78.52 13.8983C78.4477 13.2365 78.4477 12.5011 78.4477 11.6554Z" fill="var(--fill-0, white)"/>
<path id="Path_00000021833308488469968430000012358625786822040726_" d="M61.4854 25.6643H63.5831V25.1863H61.4854V23.8994H63.6916V23.4214H60.9791V27.5027H63.764V27.0247H61.4854V25.6643Z" fill="var(--fill-0, white)"/>
<path id="Shape_00000098210653054665161180000012887687870986623633_" d="M85.1028 25.407C85.5007 25.2599 85.7539 24.8922 85.7539 24.451C85.7539 23.8259 85.2475 23.3111 84.3795 23.3111C83.5115 23.3111 83.0413 23.7891 83.0413 24.451C83.0413 24.8922 83.2945 25.2599 83.6923 25.407C83.2583 25.5173 82.9328 25.9217 82.9328 26.3997C82.9328 27.0615 83.4391 27.5763 84.4157 27.5763C85.356 27.5763 85.8985 27.0615 85.8985 26.3997C85.8985 25.9217 85.573 25.5173 85.1028 25.407ZM83.5476 24.4877C83.5476 24.0833 83.837 23.7891 84.4157 23.7891C84.9943 23.7891 85.2837 24.0833 85.2837 24.4877C85.2837 24.8922 84.9943 25.1863 84.4157 25.1863C83.837 25.1863 83.5476 24.8922 83.5476 24.4877ZM84.3795 27.0983C83.7285 27.0983 83.403 26.7674 83.403 26.3629C83.403 25.9585 83.7285 25.6276 84.3795 25.6276C85.0305 25.6276 85.356 25.9585 85.356 26.3629C85.356 26.7674 85.0305 27.0983 84.3795 27.0983Z" fill="var(--fill-0, white)"/>
<path id="Path_00000176757212824902323020000013325990973266467459_" d="M75.7719 24.0097V24.5244L76.8569 23.9729V27.5027H77.3271V23.4214H76.9292L75.7719 24.0097Z" fill="var(--fill-0, white)"/>
<path id="Shape_00000037686609279404303370000010770066219061261725_" d="M80.3286 23.3479C79.4606 23.3479 78.8457 23.9362 78.8457 24.7819C78.8457 25.1495 78.9904 25.5172 79.2435 25.7746C79.4967 26.032 79.8584 26.1791 80.2201 26.1791C80.5094 26.1791 80.7626 26.1055 80.9796 25.9217L79.7499 27.5027H80.3647L81.2328 26.3629C81.5945 25.9217 81.8115 25.3702 81.8115 24.8186C81.7753 23.8626 81.1604 23.3479 80.3286 23.3479ZM80.2924 25.7011C79.6776 25.7011 79.3159 25.3334 79.3159 24.7451C79.2797 24.4877 79.3882 24.2303 79.5691 24.0465C79.7499 23.8626 80.0031 23.7523 80.2924 23.7891C80.9073 23.7891 81.2689 24.1568 81.2689 24.7451C81.2689 25.3334 80.9073 25.7011 80.2924 25.7011Z" fill="var(--fill-0, white)"/>
<path id="Path_00000142174851758821261620000002337132851835372930_" d="M66.9828 25.2599L66.3317 25.1128C65.7892 25.0025 65.6084 24.7819 65.6084 24.4877C65.6084 24.0465 65.9701 23.8259 66.5126 23.8259C67.0189 23.8259 67.3806 24.0097 67.5976 24.3406L67.9955 24.0833C67.8146 23.642 67.2721 23.3479 66.5488 23.3479C65.6446 23.3479 65.102 23.8259 65.102 24.4877C65.102 25.0392 65.4637 25.4069 66.2232 25.5908L66.8743 25.7378C67.3806 25.8481 67.5976 26.0688 67.5976 26.3997C67.5976 26.8409 67.2359 27.0983 66.6211 27.0983C66.1147 27.135 65.6084 26.8409 65.3914 26.3629L64.9935 26.5835C65.2105 27.1718 65.7892 27.5395 66.6211 27.5395C67.5615 27.5395 68.104 27.0615 68.104 26.3261C68.104 25.8114 67.7785 25.4805 66.9828 25.2599Z" fill="var(--fill-0, white)"/>
<path id="Path_00000049938151463952413680000018277263392834761117_" d="M86.9836 24.0097V24.5244L88.0686 23.9729V27.5027H88.5388V23.4214H88.1409L86.9836 24.0097Z" fill="var(--fill-0, white)"/>
<path id="Path_00000181078687114272217880000007359720487714758841_" d="M72.9142 26.8409C72.7695 26.8409 72.661 26.9145 72.5887 27.0615C72.5164 27.2086 72.5525 27.3557 72.661 27.4292C72.7695 27.5395 72.9142 27.5763 73.0227 27.5028C73.1674 27.4292 73.2397 27.3189 73.2397 27.1718C73.2397 27.0615 73.2036 26.988 73.1312 26.9145C73.0589 26.8409 72.9865 26.8409 72.9142 26.8409Z" fill="var(--fill-0, white)"/>
<path id="Path_00000062153908840266215310000009319675024833714068_" d="M69.0443 23.8994H70.3825V27.5027H70.8889V23.8994H72.2271V23.4214H69.0443V23.8994Z" fill="var(--fill-0, white)"/>
</g>
</svg>
