<svg preserveAspectRatio="none" width="100%" height="100%" overflow="visible" style="display: block;" viewBox="0 0 51.3437 52.1965" fill="none" xmlns="http://www.w3.org/2000/svg">
<g id="Group 16">
<path id="VW" d="M25.6719 52.1965C39.8702 52.1965 51.3437 40.5324 51.3437 26.0982C51.3437 11.6641 39.8702 0 25.6719 0C11.4736 0 5.34058e-05 11.6641 5.34058e-05 26.0982C5.34058e-05 40.5324 11.4736 52.1965 25.6719 52.1965ZM18.2499 37.8714C18.1066 37.8714 18.0346 37.7258 17.9627 37.5801L6.13062 13.3408C8.24635 10.0599 11.0784 7.28989 14.4849 5.35783L22.9824 24.6031C23.1257 24.9683 23.3409 25.0407 23.6281 25.0407H27.7156C28.0029 25.0407 28.2174 24.9683 28.3614 24.6031L36.8589 5.35783C40.2647 7.28919 43.0974 10.0599 45.2124 13.3408L33.3804 37.5801C33.3084 37.7258 33.2372 37.8714 33.0932 37.8714C32.9492 37.8714 32.878 37.7258 32.806 37.5801L28.36 27.2282C28.2167 26.8637 28.0015 26.7913 27.7142 26.7913H23.6267C23.3395 26.7913 23.125 26.8637 22.981 27.2282L18.535 37.5801C18.4644 37.7258 18.3931 37.8714 18.2499 37.8714ZM25.6719 20.7404C25.5286 20.7404 25.4566 20.5948 25.3847 20.4484L18.0706 3.75435C20.4369 2.87979 23.0184 2.40557 25.6719 2.40557C28.3247 2.40557 30.9062 2.87979 33.2725 3.75435L25.9584 20.4484C25.8864 20.5941 25.8151 20.7404 25.6719 20.7404ZM25.6719 49.7909C12.9076 49.7909 2.4383 39.0745 2.4383 26.0982C2.4383 23.1826 2.94076 20.4118 3.909 17.824L17.4969 45.6355C17.6768 46.0021 17.8914 46.2913 18.3218 46.2913C18.7516 46.2913 18.989 45.995 19.1461 45.6355L25.3847 31.3836C25.4566 31.238 25.5279 31.0916 25.6719 31.0916C25.8151 31.0916 25.8871 31.2373 25.9591 31.3836L32.1976 45.6355C32.3547 45.995 32.5921 46.2913 33.0219 46.2913C33.4524 46.2913 33.6683 46.0014 33.8469 45.6355L47.4361 17.824C48.4037 20.4118 48.9062 23.1819 48.9062 26.0982C48.9048 39.0738 38.4362 49.7909 25.6719 49.7909Z" fill="var(--fill-0, white)"/>
</g>
</svg>
