<svg xmlns="http://www.w3.org/2000/svg" width="52" height="53" viewBox="0 0 52 53" fill="none">
  <path d="M25.6718 52.1965C39.8701 52.1965 51.3437 40.5324 51.3437 26.0982C51.3437 11.6641 39.8701 0 25.6718 0C11.4735 0 0 11.6641 0 26.0982C0 40.5324 11.4735 52.1965 25.6718 52.1965ZM18.2498 37.8714C18.1066 37.8714 18.0346 37.7258 17.9626 37.5801L6.13056 13.3408C8.24629 10.0599 11.0783 7.28989 14.4848 5.35783L22.9824 24.6031C23.1256 24.9683 23.3409 25.0407 23.6281 25.0407H27.7156C28.0028 25.0407 28.2173 24.9683 28.3613 24.6031L36.8588 5.35783C40.2646 7.28919 43.0974 10.0599 45.2124 13.3408L33.3804 37.5801C33.3084 37.7258 33.2371 37.8714 33.0931 37.8714C32.9492 37.8714 32.8779 37.7258 32.8059 37.5801L28.3599 27.2282C28.2167 26.8637 28.0014 26.7913 27.7142 26.7913H23.6267C23.3395 26.7913 23.1249 26.8637 22.981 27.2282L18.535 37.5801C18.4644 37.7258 18.3931 37.8714 18.2498 37.8714ZM25.6718 20.7404C25.5286 20.7404 25.4566 20.5948 25.3846 20.4484L18.0706 3.75435C20.4368 2.87979 23.0183 2.40557 25.6718 2.40557C28.3246 2.40557 30.9061 2.87979 33.2724 3.75435L25.9584 20.4484C25.8864 20.5941 25.8151 20.7404 25.6718 20.7404ZM25.6718 49.7909C12.9075 49.7909 2.43825 39.0745 2.43825 26.0982C2.43825 23.1826 2.94071 20.4118 3.90894 17.824L17.4968 45.6355C17.6768 46.0021 17.8913 46.2913 18.3218 46.2913C18.7516 46.2913 18.989 45.995 19.1461 45.6355L25.3846 31.3836C25.4566 31.238 25.5279 31.0916 25.6718 31.0916C25.8151 31.0916 25.8871 31.2373 25.959 31.3836L32.1976 45.6355C32.3547 45.995 32.5921 46.2913 33.0219 46.2913C33.4523 46.2913 33.6683 46.0014 33.8468 45.6355L47.4361 17.824C48.4036 20.4118 48.9061 23.1819 48.9061 26.0982C48.9047 39.0738 38.4361 49.7909 25.6718 49.7909Z" fill="white"/>
</svg>