<svg preserveAspectRatio="none" width="100%" height="100%" overflow="visible" style="display: block;" viewBox="0 0 132 29.0001" fill="none" xmlns="http://www.w3.org/2000/svg">
<g id="Natura">
<path id="Vector" d="M20.0151 11.8875C19.5344 15.05 16.9711 15.2436 15.433 12.2747C9.40908 1.43172 0.437255 7.95042 9.98585 16.9862C11.6841 18.3416 11.3957 19.4066 9.345 19.2775C-0.876478 15.5341 1.11014 21.7946 11.588 24.3763C13.158 24.1504 14.3115 25.1185 12.9978 26.1189C11.62 28.1842 19.5985 29.6041 21.7774 26.4416C30.4929 28.5715 35.2351 24.1181 30.2045 23.9245C28.0897 23.6018 28.8587 21.956 30.4929 21.7946C41.0027 18.2125 40.9066 9.78985 30.7172 16.0827C28.2179 17.7285 26.3915 16.8894 27.4809 14.695C34.2098 4.46518 22.6105 -1.66628 20.0151 11.8875ZM22.8027 27.6356C20.3996 30.0236 9.40909 29.3137 10.2742 25.2153C-2.25429 21.0846 -3.11944 12.5329 6.55732 16.5022C-3.27965 4.20701 8.99254 -3.69934 17.3235 9.88667C19.182 -5.15152 36.9334 -2.15034 31.5503 12.9201C41.7718 6.65959 45.6809 15.405 33.1204 22.5368C39.2725 22.6659 30.0443 29.9268 22.8027 27.6356Z" fill="var(--fill-0, white)"/>
<path id="Vector_2" d="M105.565 12.5487H102.3V21.1022C101.045 27.5173 94.0749 26.3478 93.604 21.1022L93.5726 12.4485H89.9936L90.025 20.7681C90.2761 28.0853 103.964 29.7559 105.565 21.5699V12.5487ZM44 26.5149H47.4534V17.9949C47.6418 11.9807 56.244 12.1478 55.9615 18.4292V26.6485H59.6033V18.0951C57.9393 10.1097 46.1349 10.1097 44.0628 17.1262L44 26.5149ZM74.0136 26.7822H77.4356V18.6965C76.8705 8.50589 57.4998 10.7445 63.0253 23.7083C65.066 27.25 70.1834 27.9516 73.1031 25.7464V24.41C69.995 25.145 67.6718 25.9469 65.9765 22.0377C62.9625 12.6824 74.1077 10.7445 73.9194 18.7299L74.0136 26.7822ZM128.578 27.3502H132V19.2645C131.435 9.0739 112.064 11.3125 117.59 24.2763C119.63 27.818 124.748 28.4528 127.699 26.3144V24.978C124.591 25.713 122.268 26.5149 120.572 22.6057C117.558 13.2504 128.704 11.3125 128.515 19.2979L128.578 27.3502ZM116.365 12.7492C116.365 13.1836 116.365 13.5845 116.365 14.0189C113.728 13.785 112.347 14.9544 112.158 17.4937L111.939 27.0829H108.768C108.768 23.7417 108.768 20.6678 108.768 17.36C109.615 13.1836 112.504 11.7803 116.365 12.7492ZM84.2483 12.3149H87.4192L87.325 14.7205H84.4053C84.4053 17.928 84.4053 21.169 84.4053 24.3765C84.5936 26.9827 86.0692 27.7177 88.1099 27.5841C88.1099 28.0184 88.1099 28.4528 88.1099 28.8871C84.1855 29.3883 81.2972 28.3191 80.6693 23.6749V6H84.2169V12.3149H84.2483Z" fill="var(--fill-0, white)"/>
</g>
</svg>
