<svg preserveAspectRatio="none" width="100%" height="100%" overflow="visible" style="display: block;" viewBox="0 0 130 35.4699" fill="none" xmlns="http://www.w3.org/2000/svg">
<g id="Netflix">
<path id="Vector" d="M17.8242 0.00333506H12.3502C12.3382 7.56899 12.3292 12.47 12.3202 20.0357C9.96987 12.6536 7.61358 7.76479 5.25427 0.00333506H0V35.4698C1.77249 35.2129 3.67438 34.9681 5.44988 34.7326C5.4559 27.3199 5.45891 22.7615 5.46492 15.3488C7.90849 22.6452 9.41014 26.9497 11.8477 33.8851C13.7586 33.6649 15.8561 33.3895 17.77 33.1937C17.7881 22.1313 17.8092 11.0688 17.8272 0.00639502" fill="var(--fill-0, white)"/>
<path id="Vector_2" d="M38.2659 0.00305879H23.1049C23.0838 10.9095 23.0628 21.8159 23.0447 32.7254C28.1154 32.2573 33.1921 31.8718 38.2749 31.5751C38.2749 29.9812 38.2809 27.6867 38.2839 26.0928C34.9797 26.2978 31.8199 26.515 28.5277 26.7383C28.5337 23.8075 28.5397 21.3815 28.5458 18.4476C30.9532 18.4048 33.4931 18.4415 35.9517 18.3987C35.9517 16.7956 35.9577 14.495 35.9607 12.8919C33.5262 12.9347 30.9532 12.9409 28.5548 12.9867C28.5608 10.0529 28.5668 8.44674 28.5728 5.51287C30.0805 5.49451 31.5581 5.49145 33.0327 5.49145C33.2915 5.49145 33.5503 5.49145 33.8091 5.49145H34.5824C35.8133 5.49145 37.0471 5.49145 38.305 5.47921C38.305 3.88532 38.2689 1.5939 38.2719 0" fill="var(--fill-0, white)"/>
<path id="Vector_3" d="M58.7025 0.0275331C53.1382 0.0275331 47.3844 0.0275331 41.8202 0.0275331C41.8202 1.61225 41.8142 3.89449 41.8112 5.47921C42.0519 5.47921 42.2957 5.47921 42.5364 5.47921C43.2707 5.47921 44.0019 5.48533 44.7362 5.49451C45.4675 5.50063 46.2018 5.50981 46.936 5.50981C47.1226 5.50981 47.3122 5.50981 47.4988 5.50981C47.4867 14.3022 47.4747 22.336 47.4657 31.1284C49.2532 31.0611 51.1641 31.003 52.9487 30.9571C52.9577 22.2136 52.9637 14.2288 52.9727 5.48533C54.8596 5.47921 56.8096 5.47309 58.6964 5.46698C58.6964 3.90979 58.6964 1.59084 58.6964 0.0336518" fill="var(--fill-0, white)"/>
<path id="Vector_4" d="M77.4776 0.00310857H62.2535C62.2535 10.2701 62.2535 20.5372 62.2505 30.8011C62.8403 30.8011 63.4331 30.7981 64.032 30.7981C65.2507 30.7981 66.4755 30.8011 67.6733 30.8134C67.6733 26.4569 67.6732 22.4798 67.6702 18.1234C67.9682 18.1234 68.2721 18.1234 68.576 18.1234C69.2832 18.1234 70.0025 18.1234 70.7247 18.1172C71.4469 18.1172 72.1722 18.1111 72.8914 18.1111C73.6106 18.1111 74.366 18.1111 75.0852 18.1234C75.0852 16.5601 75.0852 14.2381 75.0822 12.6747C74.4051 12.6686 73.713 12.6656 73.0118 12.6656C72.2625 12.6656 71.5071 12.6656 70.7518 12.6717C69.9994 12.6717 69.2501 12.6778 68.5129 12.6778C68.23 12.6778 67.9501 12.6778 67.6733 12.6778C67.6733 9.87548 67.6733 8.29688 67.6733 5.49456C68.2691 5.49456 68.8619 5.49456 69.4548 5.49456C70.0476 5.49456 70.6555 5.49456 71.2513 5.49456C71.8562 5.49456 72.4581 5.49456 73.0629 5.49456C74.5345 5.49456 76.0061 5.49456 77.4896 5.50374C77.4896 3.93738 77.4866 1.56641 77.4836 0.00310857" fill="var(--fill-0, white)"/>
<path id="Vector_5" d="M81.0316 0.0306416C81.0436 10.3956 80.9955 20.7605 81.0105 31.1285C85.8766 31.312 90.9924 31.5139 95.8525 31.8535C95.8525 30.2596 95.8464 27.9651 95.8434 26.3712C92.7679 26.1877 89.563 25.9674 86.4845 25.8359C86.4694 16.9578 86.5176 8.90568 86.5055 0.0306416C84.724 0.0306416 82.8161 0.0306416 81.0316 0.0306416Z" fill="var(--fill-0, white)"/>
<path id="Vector_6" d="M100.342 0.0306416C100.363 10.7504 100.384 21.4702 100.405 32.19C102.19 32.3308 104.034 32.4807 105.816 32.6428C105.822 21.7792 105.837 10.9034 105.816 0.0337016C104.034 0.0337016 102.127 0.0337016 100.342 0.0337016" fill="var(--fill-0, white)"/>
<path id="Vector_7" d="M110.509 0.0305918C112.696 5.45168 114.701 10.885 116.921 16.6426C114.61 22.1708 112.26 27.6653 109.952 32.9671C111.863 33.1598 113.84 33.4382 115.751 33.6554C117.12 30.2382 118.366 27.6102 119.738 24.1012C121.107 27.8366 122.353 30.7246 123.717 34.5824C125.624 34.8332 128.095 35.1942 130 35.4696C127.692 29.1949 125.167 22.6633 122.847 16.7344C125.158 11.1665 127.517 5.85245 129.919 0.0305918C127.948 0.0305918 125.913 0.0305918 123.942 0.0305918C122.462 3.62833 121.441 5.94117 120.021 9.36453C118.697 5.80044 117.809 3.49372 116.485 0.0275331C114.514 0.0275331 112.48 0.0275331 110.509 0.0275331" fill="var(--fill-0, white)"/>
</g>
</svg>
