<svg preserveAspectRatio="none" width="100%" height="100%" overflow="visible" style="display: block;" viewBox="0 0 120.402 42" fill="none" xmlns="http://www.w3.org/2000/svg">
<g id="nisson">
<path id="Vector" d="M50.6422 21.4004C51.9948 21.7921 53.3667 22.9942 53.384 24.4201C53.4246 26.5793 51.5066 27.5749 49.6813 27.5749L49.3031 27.6096H39.1538V34.8087H49.3031L51.3445 34.7991C57.0347 34.7991 61.654 30.3862 61.654 24.9449C61.654 21.5142 60.3246 18.5852 57.5306 16.8236L56.8437 16.2138C54.7849 15.0156 53.5268 14.5814 53.5268 14.5814L51.0358 13.5434C48.703 12.7638 47.7325 12.1309 47.7325 10.3886C47.7325 8.64622 49.2124 7.23188 51.0358 7.23188L51.4179 7.19714H59.6589V0H51.4179L49.3822 0.00964823C43.6843 0.00964823 39.065 4.41862 39.065 9.85796C39.065 13.2867 40.9 16.3084 43.6882 18.0758C43.6882 18.0758 47.2964 20.0575 48.0971 20.2465L50.5206 21.3116L50.6441 21.4004H50.6422Z" fill="var(--fill-0, white)"/>
<path id="Vector_2" d="M71.1454 28.6052C72.5038 29.0008 73.8641 30.2029 73.8873 31.6249C73.9239 33.7822 72.006 34.7778 70.1845 34.7778L69.8102 34.8106H59.657V42H69.8102L71.8381 41.9904C77.536 41.9904 82.1611 37.5891 82.1611 32.1517C82.1611 28.7268 80.8316 25.8016 78.0377 24.038L77.3508 23.4302C75.2823 22.232 74.0301 21.7998 74.0301 21.7998L71.5429 20.7636C69.2024 19.9802 68.2395 19.3493 68.2395 17.6088C68.2395 15.8684 69.7156 14.456 71.5429 14.456L71.9172 14.4193H80.1621V7.23184H71.9172L69.8854 7.23763C64.1875 7.23763 59.5721 11.6505 59.5721 17.0821C59.5721 20.5051 61.4071 23.5209 64.1914 25.2864C64.1914 25.2864 67.7996 27.2661 68.6004 27.4572L71.02 28.5184L71.1473 28.6052H71.1454Z" fill="var(--fill-0, white)"/>
<path id="Vector_3" d="M92.0675 7.21828H84.3744V34.8086H92.0675V7.21828Z" fill="var(--fill-0, white)"/>
<path id="Vector_4" d="M35.988 7.22218H28.295V34.8087H35.988V7.22218Z" fill="var(--fill-0, white)"/>
<path id="Vector_5" d="M0.00192847 7.22793V34.8163H7.48078V20.1828L12.6423 28.3235C13.7575 30.1179 15.5674 32.3755 17.8481 33.6605C19.2278 34.4401 21.3155 35.1887 23.8432 35.1887V7.22793H16.3682V21.2633L7.59848 7.22793H0H0.00192847Z" fill="var(--fill-0, white)"/>
<path id="Vector_6" d="M96.5647 7.22793V34.8163H104.04V20.1828L109.205 28.3235C110.316 30.1179 112.124 32.3755 114.407 33.6605C115.787 34.4401 117.878 35.1887 120.402 35.1887V7.22793H112.931V21.2633L104.157 7.22793H96.5647Z" fill="var(--fill-0, white)"/>
</g>
</svg>
