<svg preserveAspectRatio="none" width="100%" height="100%" overflow="visible" style="display: block;" viewBox="0 0 133.008 21.8598" fill="none" xmlns="http://www.w3.org/2000/svg">
<g id="Group">
<g id="Group_2">
<path id="Vector" d="M96.821 0H93.2303L89.3313 4.2788H92.4706L96.821 0Z" fill="var(--fill-0, white)"/>
<path id="Vector_2" d="M112.983 9.13096C111.758 7.14566 109.772 6.14943 107.558 6.14943C103.623 6.14943 100.261 9.47499 100.261 14.019C100.261 18.8711 103.429 21.8527 107.558 21.8527C109.966 21.8527 111.758 20.6701 112.983 19.0216V21.5445H115.814V0H112.983V9.13096ZM112.983 16.0114C112.259 17.9609 110.496 19.3728 108.131 19.3728C105.379 19.3728 103.164 17.3445 103.164 14.0261C103.164 10.5142 105.307 8.63643 108.131 8.63643C110.503 8.63643 112.295 10.206 112.983 12.1483V16.0043V16.0114Z" fill="var(--fill-0, white)"/>
<path id="Vector_3" d="M133.008 13.3308C133.008 9.20255 130.141 6.14933 125.669 6.14933C121.469 6.14933 118.143 9.51073 118.143 14.0189C118.143 18.8352 121.275 21.8526 125.862 21.8526C128.844 21.8526 131.324 20.5912 132.47 18.57L130.327 17.1151C129.489 18.4554 127.84 19.3727 125.934 19.3727C123.404 19.3727 121.275 17.7458 120.996 14.7141H132.886C132.965 14.2554 133.001 13.7967 133.001 13.338L133.008 13.3308ZM121.161 12.3346C121.677 10.1414 123.239 8.62917 125.676 8.62917C128.113 8.62917 129.919 10.0841 130.105 12.3346H121.161Z" fill="var(--fill-0, white)"/>
<path id="Vector_4" d="M95.2156 15.3591C95.2156 18.2618 93.646 19.3727 91.3596 19.3727C89.0733 19.3727 87.5037 18.1471 87.5037 15.3591V6.45745H84.6727V15.1297C84.6727 19.7525 87.3102 21.8525 91.3596 21.8525C95.4091 21.8525 98.0466 19.5949 98.0466 15.1297V6.45745H95.2156V15.3591Z" fill="var(--fill-0, white)"/>
<path id="Vector_5" d="M59.3013 12.6428C57.1224 12.0694 55.9399 11.7254 55.9399 10.464C55.9399 9.35306 56.9719 8.62917 58.692 8.62917C60.4122 8.62917 61.9746 9.23838 63.0855 10.2346L64.3828 8.01996C63.0855 6.79438 60.9067 6.14933 58.8426 6.14933C55.4453 6.14933 53.1088 7.98413 53.1088 10.7363C53.1088 13.7537 55.861 14.5923 58.2692 15.1656C60.1398 15.6243 61.8241 16.1619 61.8241 17.4591C61.8241 18.6417 60.7562 19.3727 58.8067 19.3727C56.9719 19.3727 55.1801 18.6059 53.8757 17.5021L52.5785 19.7168C54.0692 21.014 56.5491 21.8598 58.9572 21.8598C62.3975 21.8598 64.691 19.9891 64.691 17.2728C64.691 14.4059 62.3186 13.4527 59.3013 12.6499V12.6428Z" fill="var(--fill-0, white)"/>
<path id="Vector_6" d="M78.9388 9.13087C77.7132 7.14557 75.7279 6.14933 73.5133 6.14933C69.5785 6.14933 66.2171 9.4749 66.2171 14.0189C66.2171 18.871 69.385 21.8526 73.5133 21.8526C75.9214 21.8526 77.7132 20.67 78.9388 19.0216V21.5444H81.7698V6.45752H78.9388V9.13087ZM78.9388 16.0113C78.2149 17.9608 76.4518 19.3727 74.0867 19.3727C71.3345 19.3727 69.1198 17.3444 69.1198 14.026C69.1198 10.5141 71.2628 8.63634 74.0867 8.63634C76.459 8.63634 78.2508 10.2059 78.9388 12.1482V16.0042V16.0113Z" fill="var(--fill-0, white)"/>
</g>
<path id="Vector_7" d="M17.4592 13.5316V12.8149C20.5984 12.435 22.6411 10.0555 22.6411 6.99516C22.6411 2.07848 18.7493 7.68255e-06 13.8326 7.68255e-06H0V21.5445H5.18186V14.9292H11.9835C16.1046 14.9292 16.9002 18.4053 17.7674 21.5445H23.5513C22.4547 17.4234 21.5445 14.0978 17.4664 13.5316H17.4592ZM13.4886 10.5859H5.17469V4.34331H13.4886C15.6029 4.34331 17.3445 5.25354 17.3445 7.44669C17.3445 9.4535 15.7534 10.5859 13.4886 10.5859Z" fill="var(--fill-0, white)"/>
<path id="Vector_8" d="M36.6527 3.84128e-06H26.2603V21.5445H36.6527C43.7983 21.5445 49.4675 17.9537 49.4675 10.7722C49.4675 4.12112 44.0993 3.84128e-06 36.6527 3.84128e-06ZM36.6527 17.2012H31.435V4.3433H36.6527C41.0748 4.3433 44.1782 6.83748 44.1782 10.7722C44.1782 15.1227 40.7738 17.2012 36.6527 17.2012Z" fill="var(--fill-0, white)"/>
</g>
</svg>
