<svg preserveAspectRatio="none" width="100%" height="100%" overflow="visible" style="display: block;" viewBox="0 0 31.8051 31.9153" fill="none" xmlns="http://www.w3.org/2000/svg">
<g id="Group">
<path id="Vector" d="M31.0431 16.7388L23.0445 17.1904C19.4036 17.3767 17.3251 19.5054 17.1316 23.1391L16.6801 31.1377C16.6443 31.9332 17.3968 32.1984 18.006 31.5534L31.4588 18.0648C32.068 17.4197 31.8387 16.703 31.0431 16.7388Z" fill="var(--fill-0, white)"/>
<path id="Vector_2" d="M18.006 0.361948C17.3968 -0.283097 16.6443 -0.0179119 16.6801 0.777643L17.1316 8.7762C17.318 12.4171 19.4036 14.5386 23.0445 14.7249L31.0431 15.1765C31.8387 15.2123 32.068 14.4956 31.4588 13.8505L18.006 0.361948Z" fill="var(--fill-0, white)"/>
<g id="Group_2">
<path id="Vector_3" d="M14.6735 23.1389C14.4871 19.498 12.4015 17.3766 8.76056 17.1902L0.762003 16.7387C-0.0335516 16.7028 -0.262901 17.4554 0.346308 18.0646L13.7991 31.5532C14.4083 32.1982 15.1608 31.9331 15.125 31.1375L14.6735 23.1389Z" fill="var(--fill-0, white)"/>
<path id="Vector_4" d="M13.7991 0.361953L0.346308 13.8577C-0.262901 14.4669 -0.0335516 15.2195 0.762003 15.1836L8.76056 14.7321C12.4015 14.5458 14.48 12.4171 14.6735 8.78337L15.125 0.784816C15.1608 -0.0107392 14.4083 -0.275924 13.7991 0.36912V0.361953Z" fill="var(--fill-0, white)"/>
</g>
</g>
</svg>
