<svg preserveAspectRatio="none" width="100%" height="100%" overflow="visible" style="display: block;" viewBox="0 0 164.679 29.6053" fill="none" xmlns="http://www.w3.org/2000/svg">
<g id="Group">
<path id="Vector" d="M21.958 13.5505C21.914 12.4806 21.6297 11.4314 21.0781 10.4682L16.2934 2.03309C15.9211 1.38635 15.6775 0.694896 15.5252 0L15.3289 0.357769C14.1446 2.45622 14.1446 5.02252 15.3289 7.10032L19.173 13.8429C20.3574 15.9413 20.3574 18.5076 19.173 20.5854L18.9768 20.9432C18.8448 20.2277 18.5808 19.5362 18.2086 18.9101L14.6962 12.7249L12.456 8.7722C12.0838 8.12547 11.8402 7.43401 11.6879 6.73912L11.4916 7.09688C10.3073 9.17469 10.3073 11.741 11.4713 13.8154L15.3154 20.5786C16.4998 22.677 16.4998 25.2433 15.3154 27.3211L15.1191 27.6789C14.9872 26.9633 14.7232 26.2719 14.351 25.6458L9.55268 17.2142C8.91651 16.0755 8.60857 14.8027 8.67287 13.5539C3.53276 14.9162 0 17.8162 0 21.1668C0 25.8316 6.85235 29.6053 15.3053 29.6053C23.7582 29.6053 30.6105 25.8316 30.6105 21.1668C30.6342 17.8162 27.0744 14.9127 21.958 13.5505Z" fill="var(--fill-0, white)"/>
<path id="Vector_2" d="M35.892 27.9024C35.9563 26.6984 36.1153 25.9175 36.4368 24.9715C38.0374 25.7214 40.088 26.1101 41.6581 26.1101C44.3178 26.1101 45.7898 25.2295 45.7898 23.537C45.7898 21.8444 44.7002 21.0635 42.01 19.8905L40.5685 19.2403C37.8783 18.0363 36.051 16.5054 36.051 13.4438C36.051 10.1551 38.2945 8.03941 42.9372 8.03941C44.795 8.03941 46.5241 8.30085 48.1585 8.88567C48.0638 10.0587 47.8709 10.936 47.5833 11.7822C46.047 11.1974 44.2197 10.936 42.9068 10.936C40.4399 10.936 39.286 11.9129 39.286 13.4438C39.286 14.9402 40.4061 15.8209 42.3924 16.7015L43.9287 17.3517C47.5494 18.9135 49.0519 20.5751 49.0519 23.3753C49.0519 26.695 46.585 29.0067 41.7156 29.0067C39.4146 29.0101 37.4926 28.6489 35.892 27.9024ZM64.3977 14.063V28.5526H61.5147L61.3556 26.8257C60.5537 28.0951 59.3388 28.9104 57.3187 28.9104C53.5389 28.9104 51.0416 26.1411 51.0416 21.2596C51.0416 16.1477 53.7318 13.2511 58.9835 13.2511C61.0646 13.2477 62.7329 13.4782 64.3977 14.063ZM61.2575 25.2329V16.1167C60.6179 15.986 59.8803 15.955 59.014 15.955C55.779 15.955 54.2427 17.9744 54.2427 21.2287C54.2427 24.1906 55.4271 26.2753 58.2154 26.2753C59.4336 26.2718 60.4251 25.8831 61.2575 25.2329ZM80.4441 18.8172V28.5526H77.3038V19.371C77.3038 17.0903 76.5661 15.986 73.4293 15.986C72.6916 15.986 71.7949 16.0823 70.9625 16.213V28.5526H67.8222V14.063C69.8086 13.5745 72.0182 13.2477 73.524 13.2477C78.7454 13.2477 80.4441 15.3014 80.4441 18.8172ZM89.1237 26.1755C90.0204 26.1755 90.8867 26.0138 91.5905 25.7524C91.4958 26.633 91.3977 27.61 91.2048 28.4563C90.3385 28.814 89.4418 28.9138 88.5451 28.9138C85.503 28.9138 83.5471 27.4827 83.5471 23.9635V8.72398C84.5081 8.39717 85.7263 8.26645 86.6873 8.26645V13.7362H91.6515C91.5872 14.7132 91.5229 15.6248 91.3638 16.471H86.6873V23.5679C86.7212 25.46 87.6179 26.1755 89.1237 26.1755ZM105.972 14.063V28.5526H103.089L102.93 26.8257C102.128 28.0951 100.913 28.9104 98.8929 28.9104C95.1132 28.9104 92.6159 26.1411 92.6159 21.2596C92.6159 16.1477 95.306 13.2511 100.558 13.2511C102.639 13.2477 104.304 13.4782 105.972 14.063ZM102.832 25.2329V16.1167C102.192 15.986 101.455 15.955 100.588 15.955C97.3533 15.955 95.817 17.9744 95.817 21.2287C95.817 24.1906 97.0014 26.2753 99.7897 26.2753C101.008 26.2718 101.999 25.8831 102.832 25.2329ZM122.018 18.8172V28.5526H118.878V19.371C118.878 17.0903 118.14 15.986 115.004 15.986C114.266 15.986 113.369 16.0823 112.537 16.213V28.5526H109.396V14.063C111.383 13.5745 113.592 13.2477 115.098 13.2477C120.32 13.2477 122.018 15.3014 122.018 18.8172ZM137.936 8.26645V28.5526H135.053L134.894 26.695C134.092 28.0641 132.877 28.9104 130.827 28.9104C127.047 28.9104 124.549 26.1411 124.549 21.2596C124.549 16.1477 127.24 13.2511 132.491 13.2511C133.324 13.2511 134.092 13.3474 134.83 13.4782V8.69302C135.791 8.33181 136.911 8.26645 137.936 8.26645ZM134.83 25.1985V16.2784C133.997 16.1167 133.131 15.986 132.332 15.986C129.226 15.986 127.751 17.9709 127.751 21.2596C127.751 24.2215 128.905 26.3062 131.723 26.3062C132.938 26.2718 133.963 25.8487 134.83 25.1985ZM153.695 22.3329H143.702C144.088 24.9061 145.59 26.1755 148.379 26.1755C150.077 26.1755 151.837 25.7833 153.407 25.0678C153.279 25.9141 153.12 27.0218 152.927 27.9643C151.485 28.6145 149.979 28.876 148.314 28.876C143.063 28.876 140.532 25.9141 140.532 20.9638C140.532 16.6327 142.484 13.2133 147.482 13.2133C151.966 13.2133 153.888 16.2096 153.888 19.8561C153.854 20.7711 153.823 21.5211 153.695 22.3329ZM143.638 19.6634H150.717C150.717 17.2863 149.468 15.8862 147.289 15.8862C145.046 15.9206 143.892 17.221 143.638 19.6634ZM164.679 13.3474C164.679 14.29 164.55 15.4631 164.391 16.0823C163.654 15.986 162.919 15.9516 162.022 15.9516C161.254 15.9516 160.486 16.017 159.718 16.1133V28.5182H156.578V14.0286C157.925 13.5711 160.165 13.2133 161.928 13.2133C162.919 13.2477 163.975 13.2821 164.679 13.3474Z" fill="var(--fill-0, white)"/>
</g>
</svg>
